<?xml version="1.0" encoding="utf-8"?>
<!-- Generator: Adobe Illustrator 16.0.0, SVG Export Plug-In . SVG Version: 6.00 Build 0)  -->
<!DOCTYPE svg PUBLIC "-//W3C//DTD SVG 1.1//EN" "http://www.w3.org/Graphics/SVG/1.1/DTD/svg11.dtd">
<svg version="1.1" id="Layer_1" xmlns="http://www.w3.org/2000/svg" xmlns:xlink="http://www.w3.org/1999/xlink" x="0px" y="0px"
	 width="360px" height="112.057px" viewBox="0 0 360 112.057" enable-background="new 0 0 360 112.057" xml:space="preserve">
<g>
	<g>
		<g>
			<path fill="#4D4D4F" d="M114.547,49.052V36.908h6.705v12.144H114.547z M114.547,107.987V55.475h6.705v52.512H114.547z"/>
			<path fill="#4D4D4F" d="M170.493,74.931c-3.97,3.972-8.971,6.159-15.003,6.565l20.066,26.489h-8.955l-24.099-32.163l7.689-0.048
				c3.219-0.095,5.75-0.437,7.596-1.031c7.813-2.375,11.721-7.392,11.721-15.049c0-6.284-2.595-10.83-7.783-13.644
				c-2.032-1.094-4.267-1.846-6.705-2.251c-1.813-0.282-4.188-0.423-7.127-0.423h-12.377v64.608h-7.126V36.907h18.051
				c1.595,0,3.031,0.03,4.313,0.094c1.656,0.095,3.172,0.22,4.547,0.376c3.501,0.438,6.376,1.188,8.627,2.25
				c8.439,4.063,12.659,10.816,12.659,20.254C176.588,65.851,174.557,70.87,170.493,74.931z"/>
			<path fill="#4D4D4F" d="M182.529,107.987V36.909h38.867v6.47h-31.74v25.506h30.709v6.471h-30.709v26.208h31.74v6.425
				L182.529,107.987L182.529,107.987z"/>
			<path fill="#4D4D4F" d="M288.523,107.987L278.21,84.076h-33.006l-10.362,23.911h-7.408l30.336-71.078h7.969l30.522,71.078
				H288.523z M261.8,45.019l-13.925,32.633h27.568L261.8,45.019z"/>
			<path fill="#4D4D4F" d="M345.412,102.125c-3.032,1.938-6.751,3.438-11.159,4.501c-3.938,0.906-7.938,1.36-12.003,1.36h-20.723
				V36.908h20.723c4.094,0,8.095,0.47,12.003,1.406c4.375,1.031,8.095,2.518,11.159,4.453c10.751,6.878,16.129,16.832,16.129,29.866
				C361.541,85.294,356.164,95.125,345.412,102.125z M342.317,48.818c-3.158-2.22-6.893-3.734-11.206-4.549
				c-1.813-0.344-3.813-0.594-6.001-0.751c-1.75-0.093-3.813-0.141-6.188-0.141h-10.268v58.185h11.768
				c2.375,0,4.423-0.063,6.143-0.188c2.125-0.155,4.063-0.422,5.813-0.798c4.063-0.873,7.705-2.469,10.924-4.781
				c3.531-2.563,6.298-6.032,8.299-10.408c1.875-4.126,2.813-8.47,2.813-13.034C354.414,62.225,350.382,54.381,342.317,48.818z"/>
		</g>
	</g>
	<g>
		<g>
			<g>
				<g>
					<path fill="#F58220" d="M37.465,18.61c0-9.465-7.673-17.138-17.137-17.138c-9.465,0-17.137,7.673-17.137,17.138
						s7.672,17.138,17.137,17.138c3.849,0,7.39-1.286,10.251-3.429l-0.203,0.231l6.39,1.668l-2.381-5.823
						C36.321,25.62,37.465,22.25,37.465,18.61z M11.736,20.435c-1.008,0-1.826-0.816-1.826-1.824c0-0.139,0.05-0.262,0.079-0.393
						c0.128-0.563,0.487-1.036,1.004-1.27c0.228-0.103,0.477-0.165,0.743-0.165c1.008,0,1.826,0.817,1.826,1.826
						C13.562,19.618,12.744,20.435,11.736,20.435z M20.328,20.435L20.328,20.435c-1.009,0-1.826-0.816-1.826-1.824
						c0-0.24,0.052-0.466,0.135-0.675c0.269-0.673,0.921-1.151,1.69-1.151l0,0c0.769,0,1.421,0.479,1.689,1.151
						c0.083,0.209,0.136,0.435,0.136,0.675C22.153,19.618,21.336,20.435,20.328,20.435z M28.92,20.435
						c-1.008,0-1.826-0.816-1.826-1.824c0-1.01,0.817-1.826,1.826-1.826c0.266,0,0.515,0.063,0.743,0.165
						c0.518,0.232,0.876,0.705,1.003,1.27c0.03,0.13,0.079,0.253,0.079,0.392C30.746,19.618,29.928,20.435,28.92,20.435z"/>
					<path fill="#F58220" d="M31.545,39.675c-0.06,0.032-0.12,0.062-0.181,0.093v0.087c-0.38,0.198-0.767,0.388-1.159,0.563v10.938
						v16.733v31.188c0,5.445-4.432,9.877-9.878,9.877c-5.446,0-9.878-4.432-9.878-9.877V40.419v-0.088
						c-0.393-0.178-0.78-0.364-1.16-0.563c-0.06-0.031-0.12-0.062-0.18-0.094c-0.06-0.031-0.121-0.059-0.18-0.091v59.604
						c0,6.284,5.113,11.397,11.397,11.397c6.284,0,11.397-5.113,11.397-11.397V69.161V51.267V39.582
						C31.666,39.616,31.604,39.642,31.545,39.675z"/>
					<path fill="#F58220" d="M31.365,39.854v-0.087c-0.38,0.198-0.767,0.386-1.159,0.563v0.088
						C30.598,40.242,30.985,40.053,31.365,39.854z"/>
				</g>
				<path fill="#F58220" d="M20.329,106.898c4.204,0,7.623-3.42,7.623-7.622V41.302c-2.395,0.807-4.957,1.251-7.623,1.251
					c-2.667,0-5.228-0.444-7.624-1.251v57.974C12.705,103.478,16.125,106.898,20.329,106.898z"/>
			</g>
			<g>
				<path fill="#F58220" d="M33.384,42.966c8.594-8.486,27.532-14.838,47.832-14.838l-13.22,49.815c0,0-24.251-4.942-34.612,1.382
					c7.041-8.366,28.962-7.913,28.962-7.913l9.653-35.89C71.999,35.522,50.027,33.169,33.384,42.966z"/>
				<path fill="#F58220" d="M79.88,37.133l-1.263,4.755c2.389,0.073,3.836,0.228,3.836,0.228L72.427,80.49
					c0,0-2.467-1.019-6.452-1.879c-0.581-0.125-1.193-0.246-1.835-0.363c-9.314-1.67-23.221-2.542-30.756,1.078
					c1.042-0.162,2.091-0.279,3.144-0.37c18.745-1.612,38.7,7.611,38.7,7.611l13.22-49.815C86.065,36.775,83.118,36.88,79.88,37.133
					z"/>
				<path fill="#F58220" d="M33.384,79.326c20.728,0.738,38.905,18.229,45.686,28.661H67.544
					C67.544,107.987,55.27,83.622,33.384,79.326z"/>
				<path fill="#F58220" d="M33.384,80.49c0,0,21.222,6.557,28.849,27.497H47.809C47.809,107.987,50.03,94.239,33.384,80.49z"/>
			</g>
		</g>
	</g>
</g>
<g>
	<path fill="#F58220" d="M303.196,26.804V9.462h6.396c1.301,0,2.347,0.177,3.133,0.527c0.787,0.352,1.403,0.892,1.85,1.621
		c0.445,0.729,0.668,1.491,0.668,2.289c0,0.74-0.197,1.438-0.593,2.094c-0.396,0.654-0.992,1.183-1.79,1.585
		c1.03,0.308,1.823,0.832,2.377,1.573s0.832,1.616,0.832,2.627c0,0.813-0.169,1.566-0.506,2.266
		c-0.338,0.697-0.755,1.236-1.25,1.615c-0.496,0.378-1.118,0.664-1.866,0.855c-0.748,0.193-1.665,0.29-2.75,0.29H303.196
		L303.196,26.804z M305.453,16.75h3.686c1,0,1.718-0.067,2.151-0.201c0.573-0.173,1.005-0.461,1.297-0.863
		c0.29-0.401,0.437-0.906,0.437-1.515c0-0.575-0.136-1.082-0.407-1.521c-0.271-0.438-0.659-0.737-1.163-0.898
		s-1.368-0.242-2.593-0.242h-3.406L305.453,16.75L305.453,16.75z M305.453,24.759h4.244c0.729,0,1.239-0.027,1.535-0.083
		c0.519-0.095,0.952-0.252,1.302-0.473c0.35-0.223,0.636-0.543,0.86-0.964c0.225-0.423,0.337-0.909,0.337-1.461
		c0-0.647-0.162-1.209-0.487-1.687c-0.326-0.478-0.778-0.813-1.355-1.007c-0.578-0.192-1.408-0.289-2.495-0.289h-3.94V24.759
		L305.453,24.759z"/>
	<path fill="#F58220" d="M319.22,26.804V9.462h12.325v2.048h-10.069v5.313h9.431v2.033h-9.431v5.903h10.465v2.046H319.22
		L319.22,26.804z"/>
	<path fill="#F58220" d="M339.393,26.804V11.51h-5.615V9.462h13.511v2.048h-5.639v15.295H339.393L339.393,26.804z"/>
	<path fill="#F58220" d="M345.962,26.804l6.545-17.343h2.431l6.976,17.343h-2.569l-1.987-5.252h-7.128l-1.871,5.252H345.962z
		 M350.88,19.683h5.779l-1.779-4.803c-0.542-1.459-0.946-2.658-1.209-3.596c-0.217,1.11-0.523,2.215-0.919,3.312L350.88,19.683z"/>
</g>
</svg>
